<svg width="131" height="23" viewBox="0 0 131 23" fill="none" xmlns="http://www.w3.org/2000/svg">
<path d="M30.1438 0.367989C30.3145 0.367989 31.2532 0.325322 32.9598 0.23999V0.911989C31.9572 1.08266 31.2958 1.32799 30.9758 1.64799C30.6558 1.94666 30.2505 2.76799 29.7598 4.11199L23.1998 22H22.5918L16.8638 5.45599L10.6878 22H10.1118L3.93582 5.03999C3.25316 3.20532 2.75182 2.10666 2.43182 1.74399C2.11182 1.35999 1.40782 1.08266 0.319824 0.911989V0.23999C2.02649 0.325322 3.26382 0.367989 4.03182 0.367989C4.54382 0.367989 5.65316 0.325322 7.35982 0.23999V0.911989C6.93316 0.97599 6.61316 1.02932 6.39982 1.07199C6.20782 1.11466 5.98382 1.18932 5.72782 1.29599C5.47182 1.38132 5.29049 1.49866 5.18382 1.64799C5.07716 1.79732 5.02382 1.98932 5.02382 2.22399C5.02382 2.65066 5.29049 3.58932 5.82382 5.03999L10.7518 18.576L16.8638 1.64799H17.3758L23.2958 18.672L28.3838 4.11199C28.7678 3.00266 28.9598 2.35199 28.9598 2.15999C28.9598 1.92532 28.9065 1.73332 28.7998 1.58399C28.7145 1.43466 28.5225 1.31732 28.2238 1.23199C27.9465 1.12532 27.7438 1.06132 27.6158 1.03999C27.5092 1.01866 27.2425 0.97599 26.8158 0.911989V0.23999C28.5225 0.325322 29.6318 0.367989 30.1438 0.367989Z" fill="black"/>
<path d="M44.6066 19.568C42.9212 21.4027 40.9799 22.32 38.7826 22.32C36.8199 22.32 35.2732 21.6693 34.1426 20.368C33.0332 19.0453 32.4786 17.3387 32.4786 15.248C32.4786 12.944 33.0972 11.0453 34.3346 9.55199C35.5719 8.03732 37.2359 7.27999 39.3266 7.27999C41.0332 7.27999 42.3239 7.79199 43.1986 8.81599C44.0946 9.83999 44.5426 11.2587 44.5426 13.072V14.224H34.1746V14.576C34.1746 16.496 34.6332 18.032 35.5506 19.184C36.4679 20.336 37.7906 20.912 39.5186 20.912C41.2252 20.912 42.7719 20.304 44.1586 19.088L44.6066 19.568ZM38.9106 8.14399C37.5879 8.14399 36.5106 8.61332 35.6786 9.55199C34.8679 10.4907 34.3879 11.8027 34.2386 13.488L42.8146 13.296C42.8146 11.7813 42.5052 10.544 41.8866 9.58399C41.2679 8.62399 40.2759 8.14399 38.9106 8.14399Z" fill="black"/>
<path d="M55.5723 22L49.4283 5.03999C48.767 3.22666 48.287 2.12799 47.9883 1.74399C47.6897 1.35999 47.071 1.08266 46.1323 0.911989V0.23999C47.4123 0.325322 48.5003 0.367989 49.3963 0.367989C50.015 0.367989 51.1777 0.325322 52.8843 0.23999V0.911989C51.711 1.12532 51.0177 1.32799 50.8043 1.51999C50.6337 1.66932 50.5483 1.90399 50.5483 2.22399C50.5483 2.60799 50.815 3.54666 51.3483 5.03999L56.2443 18.672L61.3643 4.11199C61.7697 2.93866 61.9723 2.25599 61.9723 2.06399C61.9723 1.95732 61.9617 1.87199 61.9403 1.80799C61.919 1.72266 61.887 1.64799 61.8443 1.58399C61.8017 1.51999 61.759 1.46666 61.7163 1.42399C61.6737 1.38132 61.599 1.33866 61.4923 1.29599C61.407 1.25332 61.3323 1.22132 61.2683 1.19999C61.2043 1.17866 61.0977 1.15732 60.9483 1.13599C60.8203 1.09332 60.703 1.07199 60.5963 1.07199C60.511 1.05066 60.383 1.02932 60.2123 1.00799C60.0417 0.965322 59.8923 0.933322 59.7643 0.911989V0.23999C61.5137 0.325322 62.623 0.367989 63.0923 0.367989C63.519 0.367989 64.3723 0.325322 65.6523 0.23999V0.911989C64.799 1.08266 64.223 1.32799 63.9243 1.64799C63.6257 1.94666 63.231 2.76799 62.7403 4.11199L56.1803 22H55.5723Z" fill="black"/>
<path d="M76.9816 19.568C75.2962 21.4027 73.3549 22.32 71.1576 22.32C69.1949 22.32 67.6482 21.6693 66.5176 20.368C65.4082 19.0453 64.8536 17.3387 64.8536 15.248C64.8536 12.944 65.4722 11.0453 66.7096 9.55199C67.9469 8.03732 69.6109 7.27999 71.7016 7.27999C73.4082 7.27999 74.6989 7.79199 75.5736 8.81599C76.4696 9.83999 76.9176 11.2587 76.9176 13.072V14.224H66.5496V14.576C66.5496 16.496 67.0082 18.032 67.9256 19.184C68.8429 20.336 70.1656 20.912 71.8936 20.912C73.6002 20.912 75.1469 20.304 76.5336 19.088L76.9816 19.568ZM71.2856 8.14399C69.9629 8.14399 68.8856 8.61332 68.0536 9.55199C67.2429 10.4907 66.7629 11.8027 66.6136 13.488L75.1896 13.296C75.1896 11.7813 74.8802 10.544 74.2616 9.58399C73.6429 8.62399 72.6509 8.14399 71.2856 8.14399Z" fill="black"/>
<path d="M83.8193 11.472V18.576C83.8193 19.6853 83.9153 20.4 84.1073 20.72C84.1927 20.8693 84.342 20.9973 84.5553 21.104C84.7687 21.1893 84.9713 21.2427 85.1633 21.264C85.3553 21.2853 85.686 21.328 86.1553 21.392V22C85.0247 21.9147 83.9687 21.872 82.9873 21.872C82.006 21.872 80.95 21.9147 79.8193 22V21.392C80.95 21.264 81.622 21.0613 81.8353 20.784C82.0487 20.464 82.1553 19.7173 82.1553 18.544V11.92C82.1553 10.3627 82.0487 9.46666 81.8353 9.23199C81.6433 9.03999 81.0247 8.90132 79.9793 8.81599V8.20799C81.0673 8.12266 82.2513 7.87732 83.5313 7.47199L83.9793 7.72799C83.894 8.49599 83.8513 9.13599 83.8513 9.64799C84.726 8.87999 85.5793 8.29332 86.4113 7.88799C87.2433 7.48266 88.214 7.27999 89.3233 7.27999C92.5873 7.27999 94.2193 9.21066 94.2193 13.072V18.576C94.2193 19.6853 94.3153 20.4 94.5073 20.72C94.5927 20.8693 94.742 20.9973 94.9553 21.104C95.1687 21.1893 95.3713 21.2427 95.5633 21.264C95.7553 21.2853 96.086 21.328 96.5553 21.392V22C95.4247 21.9147 94.3687 21.872 93.3873 21.872C92.406 21.872 91.35 21.9147 90.2193 22V21.392C91.35 21.264 92.022 21.0613 92.2353 20.784C92.4487 20.464 92.5553 19.7173 92.5553 18.544V13.456C92.5553 11.664 92.2033 10.4267 91.4993 9.74399C90.8167 9.03999 89.8353 8.68799 88.5553 8.68799C86.7207 8.68799 85.142 9.29599 83.8193 10.512V11.472Z" fill="black"/>
<path d="M112.566 7.27999V17.744C112.566 18.6187 112.587 19.2693 112.63 19.696C112.672 20.1013 112.811 20.432 113.046 20.688C113.302 20.9227 113.568 21.0613 113.846 21.104C114.144 21.1253 114.635 21.136 115.318 21.136V21.744L110.934 22.32V20.272C109.163 21.6373 107.456 22.32 105.814 22.32C104.107 22.32 102.87 21.84 102.102 20.88C101.355 19.8987 100.982 18.448 100.982 16.528V11.536C100.982 10.1067 100.832 9.25332 100.534 8.97599C100.256 8.69866 99.5205 8.55999 98.3258 8.55999V7.95199L102.614 7.27999V16.144C102.614 17.9147 102.966 19.152 103.67 19.856C104.395 20.56 105.408 20.912 106.71 20.912C108.224 20.912 109.632 20.4213 110.934 19.44V11.536C110.934 10.1067 110.795 9.25332 110.518 8.97599C110.24 8.69866 109.494 8.55999 108.278 8.55999V7.95199L112.566 7.27999Z" fill="black"/>
<path d="M130.169 19.568C128.484 21.4027 126.542 22.32 124.345 22.32C122.382 22.32 120.836 21.6693 119.705 20.368C118.596 19.0453 118.041 17.3387 118.041 15.248C118.041 12.944 118.66 11.0453 119.897 9.55199C121.134 8.03732 122.798 7.27999 124.889 7.27999C126.596 7.27999 127.886 7.79199 128.761 8.81599C129.657 9.83999 130.105 11.2587 130.105 13.072V14.224H119.737V14.576C119.737 16.496 120.196 18.032 121.113 19.184C122.03 20.336 123.353 20.912 125.081 20.912C126.788 20.912 128.334 20.304 129.721 19.088L130.169 19.568ZM124.473 8.14399C123.15 8.14399 122.073 8.61332 121.241 9.55199C120.43 10.4907 119.95 11.8027 119.801 13.488L128.377 13.296C128.377 11.7813 128.068 10.544 127.449 9.58399C126.83 8.62399 125.838 8.14399 124.473 8.14399Z" fill="black"/>
</svg>
